<svg width="24" height="54" viewBox="0 0 24 54" fill="none" xmlns="http://www.w3.org/2000/svg">
<rect x="1" y="1" width="22" height="52" rx="1" fill="#8AC7FF"/>
<path d="M11.3182 44.6898H15V47.0421H8.45455V44.8091H9.69886V44.7409C9.28409 44.5989 8.95881 44.3489 8.72301 43.9909C8.48722 43.6301 8.36932 43.2097 8.36932 42.7296C8.36932 42.2665 8.47585 41.8645 8.68892 41.5236C8.89915 41.1799 9.18892 40.9142 9.55824 40.7267C9.92756 40.5364 10.3494 40.4426 10.8239 40.4455H15V42.7978H11.3182C10.9943 42.7949 10.7401 42.8773 10.5554 43.0449C10.3707 43.2097 10.2784 43.4398 10.2784 43.7353C10.2784 43.9284 10.321 44.0975 10.4062 44.2424C10.4886 44.3844 10.608 44.4938 10.7642 44.5705C10.9176 44.6472 11.1023 44.687 11.3182 44.6898ZM15.1193 36.1309C15.1193 36.8411 14.9787 37.449 14.6974 37.9547C14.4134 38.4604 14.0185 38.8482 13.5128 39.1181C13.0043 39.388 12.4148 39.5229 11.7443 39.5229C11.0739 39.5229 10.4858 39.388 9.98011 39.1181C9.47159 38.8482 9.0767 38.4604 8.79545 37.9547C8.51136 37.449 8.36932 36.8411 8.36932 36.1309C8.36932 35.4206 8.51136 34.8127 8.79545 34.307C9.0767 33.8013 9.47159 33.4135 9.98011 33.1436C10.4858 32.8738 11.0739 32.7388 11.7443 32.7388C12.4148 32.7388 13.0043 32.8738 13.5128 33.1436C14.0185 33.4135 14.4134 33.8013 14.6974 34.307C14.9787 34.8127 15.1193 35.4206 15.1193 36.1309ZM13.3807 36.1138C13.3807 35.915 13.3139 35.7431 13.1804 35.5982C13.0469 35.4533 12.8565 35.3411 12.6094 35.2615C12.3622 35.182 12.0682 35.1422 11.7273 35.1422C11.3835 35.1422 11.0895 35.182 10.8452 35.2615C10.598 35.3411 10.4077 35.4533 10.2741 35.5982C10.1406 35.7431 10.0739 35.915 10.0739 36.1138C10.0739 36.324 10.1406 36.5044 10.2741 36.655C10.4077 36.8056 10.598 36.9206 10.8452 37.0002C11.0895 37.0797 11.3835 37.1195 11.7273 37.1195C12.0682 37.1195 12.3622 37.0797 12.6094 37.0002C12.8565 36.9206 13.0469 36.8056 13.1804 36.655C13.3139 36.5044 13.3807 36.324 13.3807 36.1138ZM15 29.3936H8.45455V27.0414H15V29.3936ZM7.77273 28.2175C7.77273 28.5357 7.66761 28.8084 7.45739 29.0357C7.24716 29.263 6.99432 29.3766 6.69886 29.3766C6.40341 29.3766 6.15057 29.263 5.94034 29.0357C5.73011 28.8084 5.625 28.5357 5.625 28.2175C5.625 27.8965 5.73011 27.6238 5.94034 27.3993C6.15057 27.1721 6.40341 27.0584 6.69886 27.0584C6.99432 27.0584 7.24716 27.1721 7.45739 27.3993C7.66761 27.6238 7.77273 27.8965 7.77273 28.2175ZM15 25.8429H8.45455V23.6099H9.69886V23.5417C9.28977 23.4054 8.96591 23.1724 8.72727 22.8429C8.48864 22.5133 8.36932 22.1213 8.36932 21.6667C8.36932 21.2065 8.49148 20.8102 8.7358 20.4778C8.97727 20.1454 9.2983 19.9451 9.69886 19.877V19.8088C9.2983 19.698 8.97727 19.4622 8.7358 19.1014C8.49148 18.7406 8.36932 18.3173 8.36932 17.8315C8.36932 17.2037 8.57102 16.6951 8.97443 16.3059C9.37784 15.9139 9.91477 15.7179 10.5852 15.7179H15V18.0701H11.1818C10.8949 18.0701 10.6705 18.1426 10.5085 18.2875C10.3437 18.4324 10.2614 18.627 10.2614 18.8713C10.2614 19.1127 10.3437 19.3045 10.5085 19.4466C10.6705 19.5858 10.8949 19.6554 11.1818 19.6554H15V21.9054H11.1818C10.8949 21.9054 10.6705 21.9778 10.5085 22.1227C10.3437 22.2676 10.2614 22.4622 10.2614 22.7065C10.2614 22.8684 10.2983 23.0076 10.3722 23.1241C10.446 23.2406 10.5526 23.3315 10.6918 23.3968C10.8281 23.4593 10.9915 23.4906 11.1818 23.4906H15V25.8429ZM17.5909 11.4043C17.5909 12.0605 17.4972 12.623 17.3097 13.0918C17.125 13.5577 16.8693 13.9199 16.5426 14.1784C16.2188 14.4341 15.8466 14.5776 15.4261 14.6088V12.3418C15.5653 12.3191 15.6776 12.2623 15.7628 12.1713C15.848 12.0804 15.9091 11.964 15.946 11.8219C15.9858 11.677 16.0057 11.5151 16.0057 11.3361C16.0057 11.0321 15.9318 10.7807 15.7841 10.5819C15.6364 10.3801 15.3693 10.2793 14.983 10.2793H13.875V10.3475C14.0966 10.4327 14.2855 10.5634 14.4418 10.7395C14.5952 10.9157 14.7131 11.1273 14.7955 11.3745C14.875 11.6216 14.9148 11.8929 14.9148 12.1884C14.9148 12.6543 14.8068 13.0833 14.5909 13.4753C14.375 13.8645 14.0327 14.177 13.5639 14.4128C13.0952 14.6458 12.483 14.7623 11.7273 14.7623C10.9375 14.7623 10.2955 14.6401 9.80114 14.3958C9.30682 14.1486 8.9446 13.8304 8.71449 13.4412C8.48438 13.0492 8.36932 12.6373 8.36932 12.2054C8.36932 11.8816 8.42614 11.5975 8.53977 11.3532C8.65057 11.1088 8.79972 10.9043 8.98722 10.7395C9.17187 10.5748 9.375 10.4498 9.59659 10.3645V10.3134H8.45455V7.96112H14.983C15.5369 7.96112 16.0071 8.10458 16.3935 8.39151C16.7827 8.6756 17.0795 9.07617 17.2841 9.59322C17.4886 10.1103 17.5909 10.714 17.5909 11.4043ZM13.2443 11.3191C13.2443 11.1032 13.1847 10.9185 13.0653 10.7651C12.9432 10.6088 12.7699 10.4895 12.5455 10.4071C12.3182 10.3219 12.0455 10.2793 11.7273 10.2793C11.4034 10.2793 11.1264 10.3219 10.8963 10.4071C10.6634 10.4895 10.4858 10.6088 10.3636 10.7651C10.2386 10.9185 10.1761 11.1032 10.1761 11.3191C10.1761 11.535 10.2386 11.7196 10.3636 11.873C10.4858 12.0236 10.6634 12.1401 10.8963 12.2225C11.1264 12.302 11.4034 12.3418 11.7273 12.3418C12.0511 12.3418 12.3267 12.302 12.554 12.2225C12.7784 12.1401 12.9503 12.0236 13.0696 11.873C13.1861 11.7196 13.2443 11.535 13.2443 11.3191Z" fill="black"/>
<rect x="1" y="1" width="22" height="52" rx="1" stroke="#0085FF" stroke-width="2"/>
</svg>
